<svg width="21" height="21" viewBox="0 0 21 21" fill="none" xmlns="http://www.w3.org/2000/svg">
<path d="M8.37012 0.503906C10.4348 0.436338 12.4479 1.15745 14.001 2.51953C15.554 3.88159 16.531 5.78315 16.7334 7.83887C16.9358 9.8947 16.3484 11.951 15.0908 13.5898L14.8242 13.9375L15.1338 14.2471L19.5859 18.7012L19.5938 18.709C19.65 18.7663 19.6948 18.834 19.7256 18.9082C19.757 18.9841 19.7734 19.0653 19.7734 19.1475C19.7734 19.2298 19.7571 19.3116 19.7256 19.3877C19.6941 19.4637 19.648 19.5327 19.5898 19.5908C19.5317 19.649 19.4627 19.6951 19.3867 19.7266C19.3107 19.7581 19.2288 19.7744 19.1465 19.7744C19.0643 19.7744 18.9831 19.758 18.9072 19.7266C18.8312 19.6951 18.7613 19.649 18.7031 19.5908L14.2471 15.1338L13.9375 14.8242L13.5898 15.0908C11.951 16.3484 9.8947 16.9358 7.83887 16.7334C5.78315 16.531 3.88159 15.554 2.51953 14.001C1.15745 12.4479 0.436338 10.4348 0.503906 8.37012C0.571478 6.30545 1.42209 4.34354 2.88281 2.88281C4.34354 1.42209 6.30545 0.571478 8.37012 0.503906ZM9.98535 1.90137C8.65173 1.63609 7.26894 1.77164 6.0127 2.29199C4.75658 2.81232 3.68313 3.69376 2.92773 4.82422C2.17237 5.95471 1.76863 7.28393 1.76855 8.64355V8.64453C1.77045 10.467 2.49562 12.2142 3.78418 13.5029C4.99246 14.7112 6.60418 15.4239 8.30273 15.5098L8.64355 15.5186C10.0033 15.5186 11.3333 15.1158 12.4639 14.3604C13.5943 13.6049 14.4748 12.5306 14.9951 11.2744C15.5154 10.0182 15.652 8.63626 15.3867 7.30273C15.1214 5.96912 14.4664 4.74371 13.5049 3.78223C12.5435 2.821 11.3187 2.16664 9.98535 1.90137Z" fill="black" fill-opacity="0.4" stroke="black"/>
</svg>
